<svg viewBox="0 0 512 512" xmlns="http://www.w3.org/2000/svg">
  <rect width="512" height="512" rx="96" fill="#ffffff"/>

  <path d="M 106 100 C 202 60, 320 60, 412 106 L 384 128 C 308 96, 204 96, 130 126 Z" fill="#c8262f"/>

  <text x="256" y="190"
        font-family="'Optima', 'Hoefler Text', 'Iowan Old Style', Georgia, -apple-system, serif"
        font-size="62"
        font-weight="700"
        font-style="italic"
        fill="#003a6c"
        text-anchor="middle">CapitalOne</text>

  <rect x="58" y="222" width="396" height="224" rx="22" fill="#ece4cc"/>
  <path d="M 68 236 L 256 354 L 444 236"
        fill="none" stroke="#8a7a4a" stroke-width="6"
        stroke-linejoin="round" stroke-linecap="round"
        opacity="0.35"/>

  <g fill="none" stroke="#5980a3" stroke-width="22" stroke-linecap="round" stroke-linejoin="round">
    <path d="M 80 248 L 134 248"/>
    <path d="M 134 248 L 175 396 L 354 396 L 388 268 L 144 268"/>
    <line x1="155" y1="312" x2="378" y2="312"/>
    <line x1="166" y1="354" x2="368" y2="354"/>
    <line x1="200" y1="268" x2="208" y2="396"/>
    <line x1="258" y1="268" x2="268" y2="396"/>
    <line x1="318" y1="268" x2="328" y2="396"/>
    <circle cx="218" cy="428" r="18"/>
    <circle cx="335" cy="428" r="18"/>
  </g>
</svg>
